<?xml version="1.0" standalone="no"?>
<!DOCTYPE svg PUBLIC "-//W3C//DTD SVG 20010904//EN"
 "http://www.w3.org/TR/2001/REC-SVG-20010904/DTD/svg10.dtd">
<svg version="1.0" xmlns="http://www.w3.org/2000/svg"
 width="80.000000pt" height="84.000000pt" viewBox="0 0 80.000000 84.000000"
 preserveAspectRatio="xMidYMid meet">

<g transform="translate(0.000000,84.000000) scale(0.100000,-0.100000)"
fill="#ef4444" stroke="none">
<path d="M325 823 c-190 -77 -325 -279 -325 -486 0 -90 25 -159 78 -218 l45
-50 -22 -23 c-32 -34 -25 -38 15 -11 27 19 41 22 54 15 34 -18 181 -12 229 10
52 24 51 24 51 5 0 -22 17 -19 87 20 57 31 66 34 79 20 20 -19 28 -19 20 1 -4
11 -1 14 12 10 16 -5 18 0 18 41 l-1 48 38 -2 c21 -2 52 4 68 12 50 26 30 77
-31 79 -29 1 -53 26 -25 26 8 0 15 5 15 10 0 6 -9 10 -20 10 -11 0 -19 3 -19
8 1 4 1 33 0 65 l-1 57 -44 0 -45 0 -3 43 c-3 41 -4 42 -43 45 -40 3 -41 4
-37 36 2 20 -2 37 -11 44 -15 13 -224 62 -262 62 -13 0 -25 -6 -28 -13 -8 -22
34 -451 45 -458 6 -4 22 -3 36 2 14 5 28 7 31 3 6 -6 7 -10 10 -68 1 -25 4
-28 29 -22 l27 6 -30 -25 c-37 -31 -108 -47 -159 -35 -49 11 -102 61 -132 125
-50 105 -25 278 56 402 85 129 187 195 313 201 42 2 77 8 77 13 0 16 -152 9
-195 -8z m70 -178 c49 -9 92 -18 95 -20 4 -2 5 -18 2 -35 -4 -29 -5 -30 -62
-30 -63 0 -110 -13 -110 -30 0 -6 5 -8 10 -5 6 4 10 -40 10 -125 l0 -130 -26
-11 c-15 -5 -28 -8 -29 -7 -3 5 -25 338 -25 382 0 34 2 38 23 33 12 -3 62 -13
112 -22z m187 -151 c2 -24 0 -44 -4 -44 -5 0 -8 -29 -8 -65 0 -37 4 -65 10
-65 6 0 10 19 10 43 0 73 8 87 47 87 36 0 36 0 29 -37 -3 -21 -6 -48 -6 -60 0
-15 -7 -23 -22 -25 -13 -2 -27 -13 -33 -25 -7 -16 -18 -23 -38 -23 -15 0 -47
-10 -70 -22 -46 -25 -107 -31 -107 -10 0 6 -6 12 -12 12 -10 0 -12 31 -8 137
l5 138 65 5 c36 3 81 3 102 2 35 -4 36 -5 40 -48z m25 -312 c-10 -10 -17 -24
-17 -30 0 -7 -2 -12 -4 -12 -2 0 -12 -3 -20 -6 -12 -5 -15 -2 -10 10 8 22 -12
20 -25 -1 -8 -15 -12 -16 -22 -5 -17 16 -5 27 46 46 58 21 72 20 52 -2z m-207
-2 c-20 -13 -40 -13 -40 0 0 6 12 10 28 10 21 0 24 -2 12 -10z m108 -91 c-20
-13 -38 -11 -38 5 0 9 8 12 26 8 19 -3 22 -7 12 -13z"/>
</g>
</svg>
